# xmcd
#
# Track frame offsets:
#	150
#	14401
#	27475
#	40887
#	54180
#	68416
#	82115
#	107721
#	123068
#	143652
#	171359
#	184019
#
# Disc length: 2697 seconds
#
# Revision: 1
# Processed by: cddbd v1.4PL0 Copyright (c) Steve Scherf et al.
# Submitted via: audiograbber 1.82.01
#
DISCID=970a870c
DTITLE=Palmenia Pizarro - Para que se Escuche Bonito¡¡¡
DYEAR=2002
DGENRE=Ballad
TTITLE0=alma corazon y vida
TTITLE1=el rosario de mi madre
TTITLE2=juramento
TTITLE3=nunca podran - ilusion perdida
TTITLE4=en vano
TTITLE5=mi pobreza
TTITLE6=el plabeyo - amarraditos - jose antonio
TTITLE7=la historia de mi vida
TTITLE8=papa
TTITLE9=aun te quiero - dolor de ausencia - tu culpa
TTITLE10=desprecio
TTITLE11=medley jaranero
EXTD=
EXTT0=
EXTT1=
EXTT2=
EXTT3=
EXTT4=
EXTT5=
EXTT6=
EXTT7=
EXTT8=
EXTT9=
EXTT10=
EXTT11=
PLAYORDER=
